# xmcd CD database file
#
# Track frame offsets:
#	150
#	19088
#	30956
#	40523
#	70646
#	95137
#	116524
#	142185
#	158711
#	179661
#	209078
#	221476
#	234633
#	259270
#	289620
#	312915
#	332734
#
# Disc length: 4728 seconds
#
# Revision: 2
# Processed by: cddbd v1.5.2PL0 Copyright (c) Steve Scherf et al.
# Submitted via: CDex 1.51
#
DISCID=fa127611
DTITLE=Various Artist - Saturn Barjazz 2 Edition CD 1
DYEAR=2004
DGENRE=Jazz
TTITLE0=Cäcilie Norby - Gentle On My Mind
TTITLE1=Eve Boswell - Heatwave
TTITLE2=Tony Bennett - Chicago
TTITLE3=Loo Donaldson - Blues Walk
TTITLE4=Kenny Burrell - Chitlins Con Carne
TTITLE5=Victoria Tolstoy - High-Heels
TTITLE6=Denise Jannah - My Favorite Thinks
TTITLE7=Molly Johnson - He´s Got My Heart
TTITLE8=Benny Green - Soon
TTITLE9=Stanley Turrentine - She´s A Carioca
TTITLE10=Peggy Lee - Mack The Knife
TTITLE11=Eliane Elias - How Insensitive
TTITLE12=Kurt Elling - Never Say Goodbye
TTITLE13=Everette Harp - Love You To The Letter
TTITLE14=Hank Mobley - The Good Life
TTITLE15=Bob Belden and Holly Cole - Purple Rain
TTITLE16=Cassandra Wilson - Harvest Moon
EXTD=YEAR: 2004
EXTT0=
EXTT1=
EXTT2=
EXTT3=
EXTT4=
EXTT5=
EXTT6=
EXTT7=
EXTT8=
EXTT9=
EXTT10=
EXTT11=
EXTT12=
EXTT13=
EXTT14=
EXTT15=
EXTT16=
PLAYORDER=
